<?xml version="1.0" encoding="iso-8859-1"?>
<!-- Generator: Adobe Illustrator 19.0.0, SVG Export Plug-In . SVG Version: 6.00 Build 0)  -->
<svg version="1.1" id="Layer_1" xmlns="http://www.w3.org/2000/svg" xmlns:xlink="http://www.w3.org/1999/xlink" x="0px" y="0px"
	 viewBox="0 0 508 508" style="enable-background:new 0 0 508 508;" xml:space="preserve">
<path style="fill:#61C2AB;" d="M448.4,38H59.6C30,38,6,64.4,6,93.6V316c0,29.6,24,54,53.6,54h240.8c0.4,0,0.8,0,1.2,0.4l96.8,96.8
	v-95.6c0-1.2,1.6-1.6,2.8-1.6h47.6c29.6,0,53.6-24.4,53.6-54V93.6C502,64.4,478,38,448.4,38z M126.8,246.8
	c-23.2,0-41.6-18.8-41.6-41.6c0-23.2,18.8-41.6,41.6-41.6c6.8,0,13.6,1.6,19.2,4.8c0.8,0.4,1.2,1.6,0.8,2.8c0,0.4-0.4,0.4-0.4,0.4
	l15.2,16l0.4-0.4c1.2-0.4,2,0,2.8,0.8c2.4,5.6,3.6,11.2,3.6,17.2C168.8,228,150,246.8,126.8,246.8z M254,246.8
	c-23.2,0-41.6-18.8-41.6-41.6c0-23.2,18.8-41.6,41.6-41.6c6.8,0,13.6,1.6,19.2,4.8c0.8,0.4,1.2,1.6,0.8,2.8c0,0.4-0.4,0.4-0.4,0.4
	l15.2,16l0.4-0.4c1.2-0.4,2,0,2.8,0.8c2.4,5.6,3.6,11.2,3.6,17.2C295.6,228,276.8,246.8,254,246.8z M380.4,246.8
	c-23.2,0-41.6-18.8-41.6-41.6c0-23.2,18.8-41.6,41.6-41.6c6.8,0,13.6,1.6,19.2,4.8c0.8,0.4,1.2,1.6,0.8,2.8c0,0.4-0.4,0.4-0.4,0.4
	l15.2,16l0.4-0.4c1.2-0.4,2,0,2.8,0.8c2.4,5.6,3.6,11.2,3.6,17.2C422,228,403.6,246.8,380.4,246.8z"/>
<g>
	<path style="fill:#F4EFEF;" d="M144.4,171.2c-5.2-2.8-11.2-4.4-17.6-4.4c-20.8,0-37.6,16.8-37.6,37.6c0,20.8,16.8,37.6,37.6,37.6
		s37.6-16.8,37.6-37.6c0-5.6-1.2-10.8-3.2-15.6c-0.4-0.8,0-1.6,0.4-2.4l-15.2-16C146,171.6,145.2,171.6,144.4,171.2z"/>
	<path style="fill:#F4EFEF;" d="M271.6,171.2c-5.2-2.8-11.6-4.4-17.6-4.4c-20.8,0-37.6,16.8-37.6,37.6c0,20.8,16.8,37.6,37.6,37.6
		s37.6-16.8,37.6-37.6c0-5.6-1.2-10.8-3.2-15.6c-0.4-0.8,0-1.6,0.4-2.4l-15.2-16C273.2,171.6,272,171.6,271.6,171.2z"/>
	<path style="fill:#F4EFEF;" d="M398,171.2c-5.2-2.8-11.6-4.4-17.6-4.4c-20.8,0-37.6,16.8-37.6,37.6c0,20.8,16.8,37.6,37.6,37.6
		s37.6-16.8,37.6-37.6c0-5.6-1.2-10.8-3.2-15.6c-0.4-0.8,0-1.6,0.4-2.4l-15.2-16C399.6,171.6,398.8,171.6,398,171.2z"/>
</g>
<path d="M400,476c-1.2,0-2-0.4-2.8-1.2L298.8,376H59.6C26.8,376,0,349.2,0,316V93.6C0,60,27.2,32,59.6,32h388.8
	c32.4,0,59.6,28.4,59.6,61.6V316c0,33.2-26.8,60-59.6,60H404v96c0,1.6-0.8,3.2-2.4,3.6C401.2,476,400.4,476,400,476z M59.6,40
	C31.6,40,8,64.8,8,93.6V316c0,28.8,23.2,52,51.6,52h240.8c1.2,0,2,0.4,2.8,1.2l92.8,93.2V372c0-2.4,1.6-4,4-4h48.4
	c28.4,0,51.6-23.2,51.6-52V93.6c0-29.2-23.6-53.6-51.6-53.6L59.6,40L59.6,40z"/>
<path d="M126.8,248.8c-24,0-43.6-19.6-43.6-43.6s19.6-43.6,43.6-43.6c7.2,0,14,1.6,20.4,4.8c2,1.2,2.8,3.6,1.6,5.2
	c-1.2,2-3.6,2.8-5.2,1.6c-5.2-2.8-10.8-4-16.4-4c-19.6,0-35.6,16-35.6,35.6s16,35.6,35.6,35.6s35.6-16,35.6-35.6
	c0-5.2-1.2-10-3.2-14.8c-0.8-2,0-4.4,2-5.2c2-0.8,4.4,0,5.2,2c2.4,5.6,4,11.6,4,18C170.8,228.8,151.2,248.8,126.8,248.8z"/>
<path d="M254,248.8c-24,0-43.6-19.6-43.6-43.6s19.6-43.6,43.6-43.6c7.2,0,14,1.6,20.4,4.8c2,1.2,2.8,3.6,1.6,5.6s-3.6,2.8-5.2,1.6
	c-5.2-2.8-10.8-4-16.4-4c-19.6,0-35.6,16-35.6,35.6s16,35.6,35.6,35.6s35.6-16,35.6-35.6c0-5.2-1.2-10-3.2-14.8c-0.8-2,0-4.4,2-5.2
	c2-0.8,4.4,0,5.2,2c2.4,5.6,4,11.6,4,18C297.6,228.8,278,248.8,254,248.8z"/>
<path d="M380.4,248.8c-24,0-43.6-19.6-43.6-43.6s19.6-43.6,43.6-43.6c7.2,0,14,1.6,20.4,4.8c2,1.2,2.8,3.6,1.6,5.6s-3.6,2.8-5.2,1.6
	c-5.2-2.8-10.8-4-16.4-4c-19.6,0-35.6,16-35.6,35.6s16,35.6,35.6,35.6s35.6-16,35.6-35.6c0-5.2-1.2-10-3.2-14.8c-0.8-2,0-4.4,2-5.2
	c2-0.8,4.4,0,5.2,2c2.4,5.6,4,11.6,4,18C424,228.8,404.4,248.8,380.4,248.8z"/>
<g>
</g>
<g>
</g>
<g>
</g>
<g>
</g>
<g>
</g>
<g>
</g>
<g>
</g>
<g>
</g>
<g>
</g>
<g>
</g>
<g>
</g>
<g>
</g>
<g>
</g>
<g>
</g>
<g>
</g>
</svg>
