<?xml version="1.0" encoding="UTF-8" standalone="no"?>
<!-- Created with Inkscape (http://www.inkscape.org/) -->

<svg
   xmlns:dc="http://purl.org/dc/elements/1.1/"
   xmlns:cc="http://creativecommons.org/ns#"
   xmlns:rdf="http://www.w3.org/1999/02/22-rdf-syntax-ns#"
   xmlns:svg="http://www.w3.org/2000/svg"
   xmlns="http://www.w3.org/2000/svg"
   xmlns:sodipodi="http://sodipodi.sourceforge.net/DTD/sodipodi-0.dtd"
   xmlns:inkscape="http://www.inkscape.org/namespaces/inkscape"
   width="74mm"
   height="35mm"
   viewBox="0 0 74 35"
   version="1.1"
   id="SVGRoot"
   inkscape:version="0.92.2 (5c3e80d, 2017-08-06)"
   sodipodi:docname="logo.svg"
   inkscape:export-filename="C:\Users\Tasin\Desktop\NodeMessenger\src\images\logo.png"
   inkscape:export-xdpi="96"
   inkscape:export-ydpi="96">
  <sodipodi:namedview
     id="base"
     pagecolor="#ffffff"
     bordercolor="#666666"
     borderopacity="1.0"
     inkscape:pageopacity="0.0"
     inkscape:pageshadow="2"
     inkscape:zoom="2"
     inkscape:cx="53.484026"
     inkscape:cy="93.744054"
     inkscape:document-units="mm"
     inkscape:current-layer="layer1"
     showgrid="false"
     inkscape:window-width="1920"
     inkscape:window-height="1001"
     inkscape:window-x="-9"
     inkscape:window-y="-9"
     inkscape:window-maximized="1" />
  <defs
     id="defs815" />
  <metadata
     id="metadata818">
    <rdf:RDF>
      <cc:Work
         rdf:about="">
        <dc:format>image/svg+xml</dc:format>
        <dc:type
           rdf:resource="http://purl.org/dc/dcmitype/StillImage" />
        <dc:title></dc:title>
      </cc:Work>
    </rdf:RDF>
  </metadata>
  <g
     inkscape:groupmode="layer"
     id="layer3"
     inkscape:label="Layer 2"
     transform="translate(0,-17)" />
  <g
     id="layer1"
     inkscape:groupmode="layer"
     inkscape:label="Layer 1"
     transform="translate(0,-17)">
    <g
       id="g1534"
       transform="translate(2.6829251e-8,8.5)">
      <path
         transform="matrix(0.97984397,0,0,0.99368496,14.379871,1.0630904)"
         style="fill:#000000;fill-opacity:1;stroke:#ffffff;stroke-width:0.34183916;stroke-linecap:butt;stroke-linejoin:miter;stroke-miterlimit:0;stroke-dasharray:none;stroke-opacity:1;paint-order:normal"
         d="m 48.399636,22.795839 c -0.90051,-0.890989 -1.643598,-1.637512 -1.651336,-1.658937 -0.0077,-0.02113 1.071074,-1.110891 2.397374,-2.421033 l 2.411448,-2.382074 v 3.325631 3.325634 l -0.717871,0.715392 c -0.394845,0.39342 -0.736824,0.715393 -0.76013,0.715393 -0.02373,0 -0.77908,-0.729026 -1.679537,-1.619974 z"
         id="path4696"
         inkscape:connector-curvature="0" />
      <g
         transform="translate(-1.0137726,0.14513553)"
         id="g1502">
        <g
           id="g851"
           transform="matrix(1.5152423,0,0,1.5152423,-13.720182,-12.441224)">
          <g
             id="g1468"
             transform="matrix(0.64665827,0,0,0.65579279,19.213974,8.8165298)">
            <path
               style="fill:none;stroke:#ffffff;stroke-width:0;stroke-linecap:butt;stroke-linejoin:miter;stroke-miterlimit:0;stroke-dasharray:none;stroke-opacity:1;paint-order:normal"
               d="M 40.453064,34.491677 51.899789,23.18027 V 15.468122 L 40.453064,26.779529 Z"
               id="path4673"
               inkscape:connector-curvature="0"
               sodipodi:nodetypes="ccccc" />
            <path
               style="fill:#ffffff;stroke:#010101;stroke-width:0;stroke-linecap:butt;stroke-linejoin:miter;stroke-miterlimit:4;stroke-dasharray:none;stroke-opacity:1"
               d="m 35.846118,34.491677 h 4.606946 V 23.077543 l 11.821419,11.414134 h 4.374746 V 15.468122 h -4.74944 l -0.0012,11.311407 -11.4455,-11.311407 h -4.606946 z"
               id="path4671"
               inkscape:connector-curvature="0"
               sodipodi:nodetypes="ccccccccccc" />
            <path
               style="fill:#ffffff;fill-opacity:1;stroke:#ffffff;stroke-width:0.01068253;stroke-linecap:butt;stroke-linejoin:miter;stroke-miterlimit:4;stroke-dasharray:none;stroke-opacity:1;paint-order:fill markers stroke"
               d="m 36.152657,24.980569 v -9.125365 h 2.08048 2.080479 l 5.921684,5.854359 c 3.256921,3.219891 5.937877,5.854954 5.957675,5.855686 0.01989,7.4e-4 0.03626,-2.633725 0.03626,-5.85435 v -5.855695 h 2.039535 2.039526 v 9.125365 9.125373 h -1.946299 -1.946023 l -6.128127,-5.917136 -6.128131,-5.917137 -0.01187,5.917137 -0.01187,5.917136 H 38.144668 36.15336 Z"
               id="path4679"
               inkscape:connector-curvature="0" />
            <path
               style="fill:#ffffff;fill-opacity:1;stroke:#ffffff;stroke-width:0.01068253;stroke-linecap:butt;stroke-linejoin:miter;stroke-miterlimit:4;stroke-dasharray:none;stroke-opacity:1;paint-order:fill markers stroke"
               d="m 36.152657,24.980569 v -9.125365 h 2.085439 2.085442 l 3.805209,3.761876 c 6.548233,6.473656 8.047215,7.949507 8.074122,7.949507 0.01466,0 0.02618,-2.635063 0.02618,-5.855688 v -5.855695 h 2.039525 2.039536 v 9.125365 9.125373 l -1.955551,-0.0023 -1.95556,-0.0023 -6.1186,-5.910918 -6.118597,-5.911002 -0.01256,5.913309 -0.01256,5.913317 h -1.991473 -1.991308 z"
               id="path4681"
               inkscape:connector-curvature="0" />
            <g
               id="g1475">
              <g
                 id="g1480"
                 transform="translate(1.5689338e-6)">
                <g
                   id="g1485">
                  <text
                     xml:space="preserve"
                     style="font-style:normal;font-variant:normal;font-weight:normal;font-stretch:normal;font-size:13.24679279px;line-height:1.25;font-family:'Diezma Rd';-inkscape-font-specification:'Diezma Rd';letter-spacing:0px;word-spacing:0px;fill:#000000;fill-opacity:1;stroke:none;stroke-width:0.33116984"
                     x="14.654264"
                     y="25.037588"
                     id="text1376"
                     transform="matrix(1.2354832,0,0,1.9086297,-29.712717,-13.444079)"><tspan
                       sodipodi:role="line"
                       id="tspan1374"
                       x="14.654264"
                       y="25.037588"
                       style="font-style:normal;font-variant:normal;font-weight:bold;font-stretch:normal;font-family:'Bungee Inline';-inkscape-font-specification:'Bungee Inline Bold';stroke-width:0.33116984">NODE</tspan></text>
                  <path
                     inkscape:connector-curvature="0"
                     id="path4692"
                     d="m 36.152657,24.980569 v -9.125365 h 2.088168 2.088172 l 4.258377,4.208197 c 6.878936,6.797875 7.537568,7.443739 7.590874,7.443739 0.03535,0 0.05078,-1.772745 0.05078,-5.825965 v -5.825971 h 2.039536 2.039536 v 9.125365 9.125373 l -1.955561,-7.58e-4 -1.955554,-7.66e-4 -6.092778,-5.884662 c -3.35108,-3.236554 -6.109857,-5.884653 -6.13065,-5.884653 -0.02094,0 -0.03808,2.648445 -0.03808,5.885419 v 5.88542 H 38.143925 36.15239 Z"
                     style="fill:#00baff;fill-opacity:0.94117647;stroke:none;stroke-width:2.58398104;stroke-linecap:butt;stroke-linejoin:miter;stroke-miterlimit:4;stroke-dasharray:none;stroke-opacity:1;paint-order:normal" />
                </g>
              </g>
            </g>
            <path
               sodipodi:nodetypes="ccccc"
               inkscape:connector-curvature="0"
               id="path1426"
               d="m 51.40867,22.898961 -6.005323,5.978652 6.858767,5.527968 -0.173205,-12.010762 z"
               style="fill:#ffffff;fill-opacity:1;stroke:none;stroke-width:1.52541387px;stroke-linecap:butt;stroke-linejoin:miter;stroke-opacity:1" />
          </g>
        </g>
      </g>
    </g>
  </g>
</svg>
