<svg xmlns="http://www.w3.org/2000/svg" width="13" height="13">
    <path d="M1.566 5.838V1.041h2.072L5.75 3.253c3.413 3.574 3.74 3.913 3.766 3.913.017 0 .025-.932.025-3.062V1.04h2.024v9.594h-1.94L6.601 7.54a354.633 354.633 0 0 0-3.041-3.093c-.01 0-.02 1.392-.02 3.093v3.094H1.567z" fill="#00b5ad" fill-opacity=".941"/>
    <path d="M3.7 10.838l5.679-5.946V.838l-5.68 5.946z" fill="none"/>
    <path d="M7.087 7.926c-.293-.234-.535-.43-.537-.436-.003-.006.348-.292.78-.636l.785-.626v1.748l-.233.188c-.129.103-.24.188-.248.188-.007 0-.253-.192-.547-.426zM4.615 9.885v-.857l.241-.19c.133-.104.25-.19.26-.19.039 0 1.07.81 1.07.84 0 .018-1.536 1.253-1.559 1.254-.006 0-.012-.385-.012-.857z" stroke="#fff" stroke-width=".1" stroke-miterlimit="0" transform="matrix(1.52381 0 0 2 -3.158 -11.162)"/>
</svg>